<?xml version="1.0" encoding="iso-8859-1"?>
<!-- Generator: Adobe Illustrator 16.0.4, SVG Export Plug-In . SVG Version: 6.00 Build 0)  -->
<!DOCTYPE svg PUBLIC "-//W3C//DTD SVG 1.1//EN" "http://www.w3.org/Graphics/SVG/1.1/DTD/svg11.dtd">
<svg version="1.1" id="marker_x5F_shape-layer" xmlns="http://www.w3.org/2000/svg" xmlns:xlink="http://www.w3.org/1999/xlink"
	 x="0px" y="0px" width="51px" height="66px" viewBox="0 0 51 66" style="enable-background:new 0 0 51 66;" xml:space="preserve">
<g id="marker_x5F_shape">
	<path id="SHADOW_10_" style="opacity:0.4;fill:#353535;" d="M34.5,61.5c0,2.502-4.029,4.5-9.001,4.5
		c-4.969,0-8.999-1.998-8.999-4.5c0-2.498,4.029-4.5,8.999-4.5C30.471,57,34.5,59.002,34.5,61.5z"/>
	<path style="fill:#FFFFFF;" d="M25.499,1.5c6.417,0,12.443,2.493,16.972,7.021C47.006,13.049,49.5,19.07,49.5,25.47
		c0,6.405-2.494,12.425-7.029,16.956L25.499,59.379v0.002v-0.002L8.526,42.426C3.996,37.896,1.5,31.875,1.5,25.47
		c0-6.403,2.496-12.423,7.026-16.949C13.057,3.994,19.085,1.5,25.499,1.5 M25.499,0C18.686,0,12.281,2.648,7.466,7.459
		C2.652,12.27,0,18.665,0,25.47c0,6.807,2.652,13.206,7.466,18.014l16.972,16.957l1.061,1.059l1.06-1.059l16.973-16.957
		C48.348,38.674,51,32.277,51,25.47c0-6.803-2.652-13.199-7.469-18.011C38.719,2.648,32.314,0,25.499,0L25.499,0z"/>
	<path style="fill:#1080DD;" d="M49.5,25.47c0-6.4-2.494-12.421-7.029-16.949C37.941,3.994,31.916,1.5,25.499,1.5
		c-6.413,0-12.441,2.493-16.972,7.021C3.996,13.047,1.5,19.067,1.5,25.47c0,6.405,2.496,12.425,7.026,16.956l16.972,16.953
		l16.972-16.953C47.006,37.896,49.5,31.875,49.5,25.47z"/>
</g>
</svg>
