<!-- Generator: Adobe Illustrator 16.0.4, SVG Export Plug-In . SVG Version: 6.00 Build 0)  -->
<svg id="marker_x5F_shape-layer" xmlns:rdf="http://www.w3.org/1999/02/22-rdf-syntax-ns#" style="enable-background:new 0 0 51 66;" xmlns="http://www.w3.org/2000/svg" xml:space="preserve" height="66px" viewBox="0 0 51 66" width="51px" version="1.1" y="0px" x="0px" xmlns:cc="http://creativecommons.org/ns#" xmlns:dc="http://purl.org/dc/elements/1.1/"><metadata id="metadata5542"><rdf:RDF><cc:Work rdf:about=""><dc:format>image/svg+xml</dc:format><dc:type rdf:resource="http://purl.org/dc/dcmitype/StillImage"/><dc:title/></cc:Work></rdf:RDF></metadata>
<g id="marker_x5F_shape">
	<path id="SHADOW_10_" opacity="0.4" fill="#353535" d="M34.5,61.5c0,2.502-4.029,4.5-9.001,4.5-4.969,0-8.999-1.998-8.999-4.5,0-2.498,4.029-4.5,8.999-4.5,4.972,0,9.001,2.002,9.001,4.5z"/>
	<path id="path5534" fill="#1080dd" d="M25.499,1.5c6.417,0,12.443,2.493,16.972,7.021,4.535,4.528,7.029,10.549,7.029,16.949,0,6.405-2.494,12.425-7.029,16.956l-16.972,16.953v0.002-0.002l-16.973-16.953c-4.53-4.53-7.026-10.551-7.026-16.956,0-6.403,2.496-12.423,7.026-16.949,4.531-4.527,10.559-7.021,16.973-7.021m0-1.5c-6.813,0-13.218,2.648-18.033,7.459-4.814,4.811-7.466,11.206-7.466,18.011,0,6.807,2.652,13.206,7.466,18.014l16.972,16.957,1.061,1.059,1.06-1.059,16.973-16.957c4.816-4.81,7.468-11.207,7.468-18.014,0-6.803-2.652-13.199-7.469-18.011-4.812-4.811-11.217-7.459-18.032-7.459z"/>
	<path id="path5536" fill="#FFF" d="M49.5,25.47c0-6.4-2.494-12.421-7.029-16.949-4.53-4.527-10.555-7.021-16.972-7.021-6.413,0-12.441,2.493-16.972,7.021-4.531,4.526-7.027,10.546-7.027,16.949,0,6.405,2.496,12.425,7.026,16.956l16.972,16.953,16.972-16.953c4.536-4.53,7.03-10.551,7.03-16.956z"/>
<g id="g6382" stroke-linejoin="miter" transform="matrix(0.92046981,0,0,0.92046981,2.0280197,2.1349053)" stroke="#1080dd" stroke-linecap="butt" stroke-dasharray="none" stroke-miterlimit="4" stroke-width="2.73625755" fill="none"><path id="path6374" d="m14.012,26.844,22.976,0"/><path id="path6376" d="M25.5,15.356,25.5,38.332"/></g></g>
</svg>
